# xmcd
#
# Track frame offsets:
#	150
#	11017
#	23022
#	37857
#	51158
#	64078
#	78802
#	91181
#	103566
#	114607
#	128054
#	143180
#
# Disc length: 2060 seconds
# Revision: 2
# Processed by: cddbd v1.5.2PL0 Copyright (c) Steve Scherf et al.
# Submitted via: dBpowerAMP V12.0
#
DISCID=8d080a0c
DTITLE=Bill Emerson and Sweet Dixie - Southern
DYEAR=2010
DGENRE=Country//Bluegrass
TTITLE0=Don't Care Anymore
TTITLE1=Love Reunited
TTITLE2=Life In The Old Farm Town
TTITLE3=The Midnight Train
TTITLE4=Old Coal Town
TTITLE5=The Black Fox
TTITLE6=I Can't Find Your Love Anymore
TTITLE7=Little Stone Lambs
TTITLE8=Sometimes The Pleasure's Worth The Pain
TTITLE9=Grandpa Emory's Banjo
TTITLE10=Grandma's Tattoos
TTITLE11=The Lord Will Light The Way
EXTD=
EXTT0=
EXTT1=
EXTT2=
EXTT3=
EXTT4=
EXTT5=
EXTT6=
EXTT7=
EXTT8=
EXTT9=
EXTT10=
EXTT11=
PLAYORDER=
